<?xml version="1.0" encoding="UTF-8"?>
<svg xmlns="http://www.w3.org/2000/svg" xmlns:xlink="http://www.w3.org/1999/xlink" width="500" zoomAndPan="magnify" viewBox="0 0 375 374.999991" height="500" preserveAspectRatio="xMidYMid meet" version="1.0">
  <defs>
    <clipPath id="3c53841944">
      <path d="M 271.261719 97.90625 L 369.539062 97.90625 L 369.539062 204.929688 L 271.261719 204.929688 Z M 271.261719 97.90625 " clip-rule="nonzero"></path>
    </clipPath>
    <clipPath id="b3967deb7c">
      <path d="M 222.269531 37.5625 L 369.539062 37.5625 L 369.539062 103.921875 L 222.269531 103.921875 Z M 222.269531 37.5625 " clip-rule="nonzero"></path>
    </clipPath>
    <clipPath id="006ee68346">
      <path d="M 5.789062 105 L 148 105 L 148 171 L 5.789062 171 Z M 5.789062 105 " clip-rule="nonzero"></path>
    </clipPath>
  </defs>
  <path fill="#c1b995" d="M 217.808594 236.53125 L 168.4375 236.53125 L 168.4375 143.328125 L 217.808594 143.328125 Z M 164.519531 236.53125 L 115.152344 236.53125 L 115.152344 143.328125 L 164.519531 143.328125 Z M 111.234375 236.53125 L 61.863281 236.53125 L 61.863281 143.328125 L 111.234375 143.328125 Z M 251.050781 55.128906 C 240.050781 51.820312 228.914062 49.699219 217.808594 48.664062 L 217.808594 139.410156 L 168.4375 139.410156 L 168.4375 51.054688 C 167.128906 51.304688 165.824219 51.566406 164.519531 51.84375 L 164.519531 139.410156 L 115.152344 139.410156 L 115.152344 70.179688 C 113.835938 70.90625 112.527344 71.644531 111.234375 72.402344 L 111.234375 139.410156 L 61.863281 139.410156 L 61.863281 117.195312 C 41.5625 146.289062 33.257812 182.3125 44.347656 220.828125 C 46.308594 227.640625 49.390625 234.695312 53.292969 241.015625 C 90.433594 301.203125 147.835938 277.679688 161.152344 281.484375 C 182.066406 287.460938 192.128906 295.625 203.871094 299.589844 C 282.652344 326.183594 345.066406 264.757812 349.839844 198.480469 C 356.753906 102.441406 281.003906 64.128906 251.050781 55.128906 " fill-opacity="1" fill-rule="nonzero"></path>
  <path fill="#686bea" d="M 264.628906 261.042969 L 155.746094 261.042969 C 150.746094 253.464844 145.449219 245.757812 139.664062 234.324219 C 137.984375 231.003906 136.261719 226.1875 137.242188 220.449219 C 138.125 215.273438 141.035156 211.644531 142.582031 210.304688 C 151.824219 202.308594 171.007812 197.65625 191.449219 195.925781 C 207.160156 194.59375 215.921875 194.84375 228.925781 195.925781 C 249.371094 197.621094 268.550781 202.308594 277.792969 210.304688 C 279.339844 211.644531 282.25 215.273438 283.132812 220.449219 C 284.113281 226.1875 282.390625 231.003906 280.710938 234.324219 C 274.925781 245.757812 269.628906 253.464844 264.628906 261.042969 " fill-opacity="1" fill-rule="nonzero"></path>
  <path fill="#1e1735" d="M 198.328125 105.226562 C 209.789062 104.359375 218.699219 112.390625 234.378906 126.941406 C 241.328125 133.394531 246.351562 136.226562 249.441406 141.253906 C 252.355469 145.988281 258.074219 158.195312 255.367188 171.359375 C 252.523438 185.195312 240.085938 197.824219 226.476562 198.996094 C 203.128906 201.007812 185.632812 168.246094 182.523438 160.996094 C 176.597656 147.167969 174.128906 125.957031 186.226562 109.671875 C 189.824219 104.828125 196.425781 105.375 198.328125 105.226562 " fill-opacity="1" fill-rule="nonzero"></path>
  <path fill="#ec7d40" d="M 176.148438 166.355469 C 171.863281 165.488281 161.546875 179.433594 160.59375 184.367188 C 158.492188 195.222656 159.457031 197.398438 158.121094 205.34375 C 157.105469 211.402344 155.007812 213.871094 151.078125 230.523438 C 149.652344 236.566406 149.21875 247.195312 151.761719 249.304688 C 152.984375 250.320312 157.808594 250.726562 161.144531 249.800781 C 168.15625 247.847656 181.640625 216.039062 178.371094 185.601562 C 177.828125 180.535156 182.203125 167.578125 176.148438 166.355469 " fill-opacity="1" fill-rule="nonzero"></path>
  <path fill="#ec7d40" d="M 247.265625 242.847656 C 243.289062 240.328125 240.484375 229.429688 236.648438 204.355469 C 235.410156 196.269531 234.929688 192.667969 235.660156 187.574219 C 235.996094 185.199219 237.277344 175.570312 242.820312 173.757812 C 246.457031 172.566406 250.25 174.527344 250.96875 174.992188 C 259.085938 180.238281 259.699219 191.714844 259.609375 214.226562 C 259.542969 231.964844 259.117188 242.953125 256.152344 244.332031 C 252.445312 246.054688 247.820312 243.203125 247.265625 242.847656 " fill-opacity="1" fill-rule="nonzero"></path>
  <path fill="#ed1c24" d="M 169.800781 219.070312 C 165.082031 218.730469 160.015625 216.96875 155.457031 214.074219 C 156.542969 210.253906 157.035156 208.867188 157.628906 205.34375 C 158.964844 197.398438 157.929688 195.207031 160.097656 184.367188 C 162.445312 172.648438 170.824219 164.734375 182.570312 164.382812 C 193.472656 164.050781 200.996094 158.097656 215.070312 161.058594 C 220.582031 162.21875 230.035156 168.109375 240.171875 170.707031 C 246.105469 172.226562 250.066406 172.675781 252.519531 175.238281 C 255.136719 177.972656 258.1875 182.175781 257.933594 185.828125 C 259.488281 192.347656 259.660156 201.453125 259.609375 213.980469 C 259.601562 215.972656 259.589844 217.878906 259.570312 219.695312 C 259.378906 219.808594 259.1875 219.921875 258.992188 220.023438 C 253.585938 222.890625 246.085938 222.253906 239.125 219.054688 C 238.757812 217.046875 238.378906 214.894531 237.996094 212.589844 C 237.773438 213.890625 237.550781 215.238281 237.324219 216.632812 C 236.042969 228.027344 240.496094 235.292969 244.152344 243.429688 C 248.570312 253.246094 252.902344 257.273438 249.101562 260.488281 C 241.046875 267.296875 231.753906 264.523438 206.28125 262.589844 C 188.886719 261.265625 174.980469 263.855469 179.261719 254.773438 C 186.886719 238.589844 175.558594 228.996094 169.800781 219.070312 " fill-opacity="1" fill-rule="nonzero"></path>
  <path fill="#f79556" d="M 218.699219 143.84375 C 218.992188 144.335938 220.054688 146.109375 221.414062 146.066406 C 222.867188 146.019531 223.792969 143.9375 225.367188 140.390625 C 226.863281 137.019531 226.78125 135.773438 226.601562 134.960938 C 226.488281 134.449219 226.144531 132.917969 224.871094 132.25 C 223.257812 131.398438 221.277344 132.527344 220.921875 132.742188 C 217.640625 134.714844 216.625 140.382812 218.699219 143.84375 " fill-opacity="1" fill-rule="nonzero"></path>
  <path fill="#d6d0a9" d="M 288.53125 165.1875 L 288.53125 160.195312 L 296.261719 155.058594 C 298.542969 153.539062 300.089844 152.183594 300.859375 151.03125 C 301.609375 149.90625 301.992188 148.871094 301.992188 147.957031 C 301.992188 146.859375 301.636719 145.957031 300.910156 145.210938 C 300.1875 144.464844 299.265625 144.101562 298.097656 144.101562 C 295.527344 144.101562 294.085938 145.652344 293.695312 148.839844 L 293.632812 149.34375 L 288.476562 148.0625 L 288.535156 147.660156 C 288.875 145.382812 289.898438 143.410156 291.578125 141.792969 C 293.273438 140.164062 295.515625 139.335938 298.242188 139.335938 C 301.0625 139.335938 303.355469 140.15625 305.054688 141.773438 C 306.757812 143.398438 307.625 145.484375 307.625 147.976562 C 307.625 150.179688 306.859375 152.171875 305.355469 153.898438 C 303.996094 155.453125 300.921875 157.605469 295.984375 160.457031 L 307.554688 160.457031 L 307.554688 165.1875 L 288.53125 165.1875 " fill-opacity="1" fill-rule="nonzero"></path>
  <path fill="#d6d0a9" d="M 319.753906 154.992188 L 319.753906 148.652344 C 319.753906 147.917969 319.792969 147.242188 319.867188 146.652344 L 319.910156 146.171875 L 314.363281 154.992188 Z M 319.753906 165.25 L 319.753906 159.667969 L 308.835938 159.667969 L 308.835938 155.84375 L 319.964844 139.273438 L 325.210938 139.273438 L 325.210938 154.992188 L 328.902344 154.992188 L 328.902344 159.667969 L 325.210938 159.667969 L 325.210938 165.25 L 319.753906 165.25 " fill-opacity="1" fill-rule="nonzero"></path>
  <path fill="#d6d0a9" d="M 326.261719 173.203125 L 342.285156 131.320312 L 346.753906 131.320312 L 330.636719 173.203125 L 326.261719 173.203125 " fill-opacity="1" fill-rule="nonzero"></path>
  <path fill="#d6d0a9" d="M 350.511719 164.996094 L 350.535156 164.527344 C 350.941406 156.832031 353.8125 150.007812 359.070312 144.21875 L 345.535156 144.21875 L 346 139.527344 L 364.3125 139.527344 L 364.3125 143.257812 L 364.222656 143.378906 C 361.238281 147.246094 359.234375 150.640625 358.261719 153.460938 C 357.289062 156.289062 356.695312 160.023438 356.492188 164.570312 L 356.476562 164.996094 L 350.511719 164.996094 " fill-opacity="1" fill-rule="nonzero"></path>
  <g clip-path="url(#3c53841944)">
    <path fill="#d6d0a9" d="M 360.300781 167.726562 C 352.976562 188.933594 329.757812 200.230469 308.539062 192.914062 C 287.320312 185.597656 276.011719 162.390625 283.335938 141.1875 C 290.5 120.4375 312.886719 109.175781 333.726562 115.558594 L 330.804688 124.015625 L 356.058594 118.167969 L 339.796875 97.976562 L 336.917969 106.316406 C 330.902344 104.429688 324.683594 103.683594 318.414062 104.109375 C 311.902344 104.554688 305.609375 106.230469 299.714844 109.097656 C 293.824219 111.964844 288.621094 115.878906 284.257812 120.730469 C 279.734375 125.753906 276.316406 131.566406 274.09375 138 C 271.871094 144.4375 270.976562 151.117188 271.4375 157.859375 C 271.878906 164.367188 273.558594 170.652344 276.425781 176.542969 C 279.296875 182.433594 283.214844 187.628906 288.066406 191.992188 C 293.09375 196.511719 298.90625 199.925781 305.347656 202.148438 C 311.792969 204.367188 318.476562 205.261719 325.222656 204.804688 C 331.734375 204.363281 338.027344 202.683594 343.917969 199.816406 C 349.8125 196.949219 355.011719 193.035156 359.378906 188.183594 C 363.898438 183.160156 367.320312 177.351562 369.539062 170.914062 L 360.300781 167.726562 " fill-opacity="1" fill-rule="nonzero"></path>
  </g>
  <g clip-path="url(#b3967deb7c)">
    <path fill="#d6d0a9" d="M 231.730469 37.5625 L 360.09375 37.5625 C 365.3125 37.5625 369.539062 41.789062 369.539062 47.003906 L 369.539062 84.566406 C 369.539062 89.78125 365.3125 94.007812 360.09375 94.007812 L 253.289062 94.007812 L 242.515625 103.84375 L 242.515625 94.007812 L 231.730469 94.007812 C 226.511719 94.007812 222.28125 89.78125 222.28125 84.566406 L 222.28125 47.003906 C 222.28125 41.789062 226.511719 37.5625 231.730469 37.5625 " fill-opacity="1" fill-rule="nonzero"></path>
  </g>
  <path fill="#686bea" d="M 356.941406 65.984375 C 356.941406 78.375 346.890625 88.417969 334.488281 88.417969 C 322.089844 88.417969 312.035156 78.375 312.035156 65.984375 C 312.035156 53.589844 322.089844 43.546875 334.488281 43.546875 C 346.890625 43.546875 356.941406 53.589844 356.941406 65.984375 " fill-opacity="1" fill-rule="nonzero"></path>
  <path fill="#ed1c24" d="M 346.566406 77.203125 C 346.113281 77.136719 345.699219 77.074219 345.320312 77.011719 C 343.960938 76.421875 342.828125 75.980469 341.246094 75.800781 C 338.222656 75.453125 334.253906 77.09375 330.539062 78.128906 C 326.828125 79.164062 325.617188 79.683594 323.027344 79.941406 C 321.535156 80.089844 320.296875 80.519531 319.402344 80.945312 L 319.332031 80.972656 C 319.324219 80.976562 318.878906 81.167969 318.320312 81.550781 C 322.402344 85.785156 328.136719 88.417969 334.484375 88.417969 C 342.054688 88.417969 348.75 84.675781 352.820312 78.941406 C 350.550781 78.15625 348.257812 77.449219 346.566406 77.203125 " fill-opacity="1" fill-rule="nonzero"></path>
  <path fill="#1e1735" d="M 346.316406 52.777344 C 346.605469 53.074219 347.527344 54.542969 347.140625 56.683594 C 346.136719 62.28125 347.660156 60.496094 346.917969 63.632812 C 345.691406 68.792969 341.945312 68.542969 341.679688 67.046875 C 341.414062 65.554688 342.023438 60.539062 342.546875 59.9375 C 343.070312 59.339844 346.316406 52.777344 346.316406 52.777344 " fill-opacity="1" fill-rule="nonzero"></path>
  <path fill="#ec7d40" d="M 344.425781 62.539062 C 344.425781 62.539062 344.25 66.363281 344.371094 68.101562 C 344.75 73.605469 345.96875 77.246094 345.933594 78.371094 C 345.875 80.496094 344.730469 81.117188 343.84375 81.707031 C 341.15625 83.492188 335.644531 84.050781 333.90625 82.007812 C 333.300781 81.296875 333.164062 80.601562 333.027344 79.96875 C 332.898438 79.328125 331.96875 75.089844 332.171875 74.507812 C 332.378906 73.925781 337.4375 65.238281 338.648438 64.550781 C 339.855469 63.867188 344.425781 62.539062 344.425781 62.539062 " fill-opacity="1" fill-rule="nonzero"></path>
  <path fill="#f79556" d="M 330.914062 48.894531 C 328.1875 49.839844 326.222656 52.230469 325.785156 55.078125 C 325.539062 56.691406 325.34375 58.617188 325.582031 59.648438 C 326.152344 62.113281 325.75 62.972656 325.910156 64.421875 C 326.070312 65.875 326.855469 68.039062 327.515625 69.96875 C 328.183594 71.898438 329.351562 74.488281 331.105469 75.644531 C 332.859375 76.800781 334.152344 76.5 334.777344 76.414062 C 337.664062 76.015625 342.238281 71.894531 342.738281 70.691406 C 343.242188 69.484375 343.214844 66.25 343.234375 65.359375 C 343.25 64.46875 343.296875 61.339844 343.597656 59.773438 C 343.90625 58.207031 344.367188 52.136719 339.566406 49.78125 C 338.539062 49.28125 333.660156 47.972656 331.042969 48.851562 C 331 48.867188 330.957031 48.878906 330.914062 48.894531 " fill-opacity="1" fill-rule="nonzero"></path>
  <path fill="#e6e6e6" d="M 330.136719 62.207031 C 330.125 62.34375 329.691406 62.722656 328.472656 62.636719 C 327.933594 62.597656 327.398438 62.429688 327.417969 62.15625 C 327.433594 61.898438 327.816406 61.445312 328.289062 61.398438 C 329.109375 61.320312 330.15625 61.9375 330.136719 62.207031 " fill-opacity="1" fill-rule="nonzero"></path>
  <path fill="#1e1735" d="M 327.847656 62.03125 C 327.820312 62.464844 328.152344 62.839844 328.585938 62.867188 C 329.019531 62.890625 329.394531 62.5625 329.421875 62.128906 C 329.445312 61.691406 329.117188 61.320312 328.683594 61.292969 C 328.25 61.265625 327.875 61.597656 327.847656 62.03125 " fill-opacity="1" fill-rule="nonzero"></path>
  <path fill="#e6e6e6" d="M 338.21875 61.992188 C 338.21875 62.140625 337.78125 62.574219 336.464844 62.5625 C 335.878906 62.558594 335.296875 62.410156 335.300781 62.121094 C 335.300781 61.839844 335.679688 61.328125 336.179688 61.25 C 337.058594 61.109375 338.222656 61.703125 338.21875 61.992188 " fill-opacity="1" fill-rule="nonzero"></path>
  <path fill="#1e1735" d="M 337.421875 61.847656 C 337.476562 62.285156 337.164062 62.6875 336.726562 62.746094 C 336.285156 62.804688 335.882812 62.492188 335.824219 62.050781 C 335.769531 61.609375 336.082031 61.207031 336.523438 61.152344 C 336.960938 61.09375 337.363281 61.40625 337.421875 61.847656 " fill-opacity="1" fill-rule="nonzero"></path>
  <path fill="#d66730" d="M 335.90625 71 C 335.972656 70.910156 335.917969 70.78125 335.808594 70.765625 C 335.328125 70.691406 334.164062 70.546875 332.824219 70.5625 C 331.90625 70.574219 331.035156 70.738281 330.667969 70.8125 C 330.574219 70.832031 330.523438 70.9375 330.566406 71.023438 C 330.777344 71.480469 331.496094 72.6875 333.128906 72.648438 C 334.601562 72.613281 335.570312 71.46875 335.90625 71 " fill-opacity="1" fill-rule="nonzero"></path>
  <path fill="#1e1735" d="M 330.621094 59.804688 C 330.378906 59.878906 330.15625 59.902344 329.941406 59.917969 C 329.726562 59.929688 329.519531 59.921875 329.316406 59.90625 C 329.21875 59.898438 329.121094 59.886719 329.023438 59.867188 C 328.925781 59.847656 328.832031 59.816406 328.738281 59.785156 C 328.550781 59.722656 328.363281 59.65625 328.171875 59.625 C 328.128906 59.617188 328.078125 59.609375 328.035156 59.605469 C 327.984375 59.597656 327.941406 59.59375 327.894531 59.585938 C 327.808594 59.582031 327.714844 59.574219 327.632812 59.578125 L 327.597656 59.578125 L 327.539062 59.582031 C 327.53125 59.585938 327.519531 59.585938 327.507812 59.585938 L 327.363281 59.609375 C 327.269531 59.628906 327.175781 59.648438 327.082031 59.675781 C 326.894531 59.726562 326.707031 59.796875 326.527344 59.882812 C 326.4375 59.929688 326.347656 59.976562 326.261719 60.027344 C 326.175781 60.082031 326.089844 60.144531 326.015625 60.207031 L 325.933594 60.148438 C 326.039062 59.949219 326.183594 59.78125 326.34375 59.625 C 326.503906 59.46875 326.679688 59.335938 326.875 59.214844 C 326.972656 59.15625 327.070312 59.101562 327.175781 59.050781 L 327.328125 58.980469 C 327.34375 58.972656 327.359375 58.96875 327.375 58.960938 L 327.417969 58.945312 L 327.464844 58.929688 L 327.511719 58.917969 C 327.753906 58.847656 327.988281 58.828125 328.21875 58.816406 L 328.5625 58.800781 C 328.671875 58.796875 328.789062 58.792969 328.902344 58.796875 C 329.011719 58.800781 329.121094 58.8125 329.230469 58.832031 C 329.339844 58.851562 329.445312 58.882812 329.546875 58.921875 C 329.753906 59 329.949219 59.101562 330.136719 59.230469 C 330.230469 59.292969 330.320312 59.363281 330.410156 59.441406 C 330.496094 59.519531 330.578125 59.605469 330.65625 59.710938 L 330.621094 59.804688 " fill-opacity="1" fill-rule="nonzero"></path>
  <path fill="#1e1735" d="M 334.039062 59.519531 C 334.082031 59.460938 334.125 59.40625 334.171875 59.355469 C 334.21875 59.304688 334.269531 59.261719 334.316406 59.214844 C 334.414062 59.125 334.515625 59.042969 334.621094 58.96875 C 334.726562 58.890625 334.835938 58.824219 334.945312 58.761719 C 335.058594 58.703125 335.171875 58.640625 335.289062 58.59375 C 335.347656 58.570312 335.40625 58.546875 335.464844 58.523438 C 335.527344 58.503906 335.585938 58.488281 335.648438 58.472656 C 335.710938 58.453125 335.769531 58.441406 335.835938 58.429688 C 335.898438 58.417969 335.960938 58.410156 336.023438 58.402344 C 336.152344 58.390625 336.285156 58.382812 336.414062 58.375 C 336.476562 58.367188 336.539062 58.367188 336.605469 58.363281 C 336.667969 58.363281 336.734375 58.359375 336.796875 58.351562 C 336.863281 58.347656 336.925781 58.347656 336.988281 58.34375 C 337.054688 58.34375 337.117188 58.339844 337.1875 58.339844 L 337.378906 58.34375 L 337.480469 58.351562 L 337.578125 58.359375 L 337.777344 58.378906 C 337.808594 58.382812 337.839844 58.390625 337.875 58.394531 C 337.910156 58.402344 337.941406 58.40625 337.972656 58.414062 C 338.105469 58.441406 338.234375 58.472656 338.363281 58.519531 C 338.394531 58.527344 338.425781 58.539062 338.457031 58.550781 L 338.546875 58.589844 C 338.609375 58.617188 338.667969 58.644531 338.726562 58.675781 C 338.84375 58.738281 338.957031 58.804688 339.0625 58.882812 C 339.167969 58.957031 339.265625 59.039062 339.359375 59.125 C 339.449219 59.210938 339.539062 59.300781 339.621094 59.390625 L 339.554688 59.472656 C 339.449219 59.410156 339.34375 59.351562 339.234375 59.300781 C 339.128906 59.246094 339.019531 59.199219 338.910156 59.160156 C 338.859375 59.140625 338.800781 59.125 338.746094 59.105469 C 338.691406 59.089844 338.636719 59.074219 338.582031 59.0625 C 338.527344 59.046875 338.472656 59.039062 338.417969 59.03125 L 338.332031 59.019531 C 338.304688 59.015625 338.277344 59.011719 338.25 59.011719 C 338.027344 58.992188 337.808594 59 337.582031 59.03125 L 337.5 59.039062 L 337.417969 59.054688 L 337.25 59.082031 C 337.191406 59.089844 337.136719 59.105469 337.078125 59.117188 C 337.023438 59.128906 336.96875 59.140625 336.914062 59.15625 C 336.800781 59.183594 336.6875 59.214844 336.582031 59.253906 L 336.417969 59.316406 C 336.359375 59.335938 336.308594 59.355469 336.253906 59.378906 C 336.195312 59.398438 336.140625 59.417969 336.085938 59.4375 C 336.03125 59.453125 335.976562 59.472656 335.921875 59.488281 C 335.863281 59.503906 335.808594 59.515625 335.753906 59.527344 C 335.695312 59.542969 335.636719 59.554688 335.578125 59.5625 C 335.460938 59.578125 335.34375 59.601562 335.222656 59.613281 C 335.105469 59.628906 334.984375 59.636719 334.859375 59.640625 C 334.738281 59.648438 334.609375 59.648438 334.480469 59.644531 C 334.351562 59.640625 334.21875 59.636719 334.078125 59.613281 L 334.039062 59.519531 " fill-opacity="1" fill-rule="nonzero"></path>
  <path fill="#1e1735" d="M 331.058594 51.714844 C 330.394531 52.511719 330.289062 52.90625 329.4375 53.160156 C 326.226562 54.128906 325.871094 55.8125 325.667969 56.882812 C 325.371094 58.4375 326.257812 62.761719 325.890625 62.707031 C 325.527344 62.652344 325.039062 62.074219 325.125 60.289062 C 325.195312 58.839844 323.996094 58.25 323.9375 57.320312 C 323.882812 56.394531 324.042969 53.167969 324.753906 51.742188 C 325.464844 50.316406 326.546875 48.503906 328.097656 47.898438 C 329.648438 47.292969 329.117188 46.972656 330.640625 46.507812 C 332.414062 45.964844 333.382812 46.308594 333.542969 47.027344 C 333.726562 47.867188 331.84375 50.769531 331.058594 51.714844 " fill-opacity="1" fill-rule="nonzero"></path>
  <path fill="#1e1735" d="M 338.65625 62.265625 C 338.597656 62.195312 338.535156 62.128906 338.464844 62.0625 C 338.402344 62 338.332031 61.941406 338.261719 61.882812 C 338.117188 61.773438 337.964844 61.675781 337.808594 61.601562 C 337.769531 61.582031 337.726562 61.566406 337.6875 61.546875 C 337.648438 61.53125 337.605469 61.515625 337.566406 61.503906 C 337.484375 61.476562 337.398438 61.460938 337.320312 61.445312 C 337.152344 61.414062 336.984375 61.40625 336.820312 61.425781 C 336.65625 61.4375 336.496094 61.492188 336.34375 61.558594 C 336.1875 61.621094 336.039062 61.683594 335.894531 61.742188 C 335.742188 61.808594 335.597656 61.878906 335.457031 61.96875 C 335.382812 62.015625 335.316406 62.066406 335.242188 62.121094 C 335.171875 62.175781 335.101562 62.234375 335.027344 62.304688 L 334.972656 62.285156 C 334.960938 62.179688 334.980469 62.070312 335.011719 61.96875 C 335.039062 61.867188 335.085938 61.769531 335.144531 61.679688 C 335.257812 61.496094 335.414062 61.335938 335.59375 61.214844 C 335.773438 61.09375 335.972656 61.015625 336.179688 60.980469 C 336.386719 60.9375 336.597656 60.929688 336.808594 60.9375 C 337.019531 60.949219 337.230469 60.984375 337.425781 61.054688 C 337.621094 61.125 337.800781 61.222656 337.964844 61.339844 C 338.046875 61.398438 338.121094 61.464844 338.191406 61.53125 C 338.265625 61.601562 338.332031 61.671875 338.394531 61.75 C 338.519531 61.902344 338.625 62.058594 338.710938 62.234375 L 338.65625 62.265625 " fill-opacity="1" fill-rule="nonzero"></path>
  <path fill="#1e1735" d="M 327.042969 62.414062 C 327.042969 62.363281 327.050781 62.3125 327.058594 62.265625 C 327.070312 62.214844 327.082031 62.167969 327.097656 62.121094 C 327.132812 62.03125 327.175781 61.941406 327.230469 61.855469 C 327.335938 61.6875 327.476562 61.539062 327.648438 61.421875 C 327.820312 61.304688 328.019531 61.230469 328.222656 61.207031 C 328.324219 61.191406 328.425781 61.191406 328.523438 61.191406 C 328.628906 61.195312 328.726562 61.203125 328.824219 61.214844 C 329.207031 61.257812 329.578125 61.390625 329.890625 61.609375 C 330.042969 61.71875 330.183594 61.847656 330.300781 61.992188 C 330.355469 62.066406 330.40625 62.140625 330.453125 62.21875 C 330.5 62.300781 330.539062 62.382812 330.574219 62.464844 L 330.519531 62.492188 C 330.308594 62.214844 330.042969 62 329.738281 61.875 C 329.589844 61.808594 329.433594 61.761719 329.277344 61.734375 C 329.117188 61.707031 328.957031 61.691406 328.800781 61.699219 C 328.722656 61.699219 328.644531 61.710938 328.570312 61.726562 C 328.496094 61.746094 328.421875 61.765625 328.355469 61.792969 C 328.28125 61.816406 328.214844 61.84375 328.148438 61.871094 C 328.082031 61.898438 328.015625 61.925781 327.945312 61.953125 C 327.8125 62.007812 327.671875 62.074219 327.535156 62.15625 C 327.394531 62.238281 327.253906 62.332031 327.097656 62.441406 L 327.042969 62.414062 " fill-opacity="1" fill-rule="nonzero"></path>
  <path fill="#f79556" d="M 342.363281 65.925781 C 342.453125 66.019531 342.6875 66.445312 343.085938 66.539062 C 343.480469 66.632812 344.066406 66.816406 344.859375 65.679688 C 345.660156 64.542969 346.011719 61.984375 345.898438 61.300781 C 345.898438 61.300781 345.75 59.644531 344.8125 59.6875 C 343.871094 59.730469 342.410156 63.695312 342.410156 63.695312 L 342.363281 65.925781 " fill-opacity="1" fill-rule="nonzero"></path>
  <path fill="#1e1735" d="M 330.625 52.535156 C 331.078125 53.308594 332.019531 53.515625 333.394531 53.222656 C 334.769531 52.933594 335.636719 52.972656 336.566406 53.574219 C 338.148438 54.609375 337.679688 55.742188 340.117188 58.011719 C 341.152344 58.980469 341.726562 59.707031 341.871094 61.707031 C 341.980469 63.164062 341.847656 63.429688 341.917969 64.101562 C 341.984375 64.695312 343.035156 65.140625 343.398438 64 C 343.761719 62.859375 343.730469 62.335938 344.363281 60.902344 C 344.679688 60.179688 344.882812 59.710938 345.765625 59.59375 C 346.53125 59.488281 347.277344 56.949219 347.085938 54.902344 C 346.847656 52.386719 346.253906 51.402344 344.230469 49.851562 C 342.207031 48.300781 342.25 48.65625 340.882812 47.386719 C 339.511719 46.113281 335.324219 45.042969 333.441406 46.976562 C 329.707031 50.816406 330.625 52.535156 330.625 52.535156 " fill-opacity="1" fill-rule="nonzero"></path>
  <path fill="#913b1d" d="M 336.601562 70.539062 C 336.503906 70.621094 336.402344 70.691406 336.296875 70.765625 C 336.191406 70.832031 336.082031 70.894531 335.972656 70.957031 C 335.753906 71.082031 335.519531 71.1875 335.285156 71.28125 C 335.046875 71.371094 334.804688 71.449219 334.558594 71.515625 C 334.3125 71.574219 334.058594 71.625 333.804688 71.65625 C 333.742188 71.664062 333.679688 71.671875 333.617188 71.679688 C 333.550781 71.683594 333.484375 71.695312 333.421875 71.699219 L 333.230469 71.714844 C 333.164062 71.71875 333.101562 71.722656 333.035156 71.726562 L 332.941406 71.730469 L 332.84375 71.726562 C 332.78125 71.726562 332.714844 71.722656 332.652344 71.71875 C 332.585938 71.714844 332.519531 71.707031 332.457031 71.699219 L 332.363281 71.6875 L 332.269531 71.671875 L 332.078125 71.632812 C 332.015625 71.617188 331.957031 71.601562 331.890625 71.585938 C 331.769531 71.554688 331.644531 71.511719 331.527344 71.46875 C 331.464844 71.449219 331.40625 71.421875 331.347656 71.398438 C 331.289062 71.371094 331.230469 71.347656 331.171875 71.320312 C 331.113281 71.292969 331.058594 71.261719 331 71.230469 C 330.945312 71.199219 330.890625 71.164062 330.835938 71.132812 L 330.851562 71.085938 C 330.980469 71.085938 331.105469 71.097656 331.230469 71.109375 C 331.292969 71.113281 331.355469 71.117188 331.414062 71.125 C 331.445312 71.128906 331.476562 71.132812 331.507812 71.132812 C 331.539062 71.136719 331.570312 71.136719 331.601562 71.140625 C 331.660156 71.144531 331.722656 71.152344 331.78125 71.15625 L 331.875 71.164062 L 331.964844 71.171875 C 332.027344 71.175781 332.085938 71.183594 332.144531 71.1875 L 332.328125 71.199219 L 332.417969 71.207031 L 332.507812 71.210938 C 332.566406 71.214844 332.628906 71.21875 332.6875 71.226562 C 332.75 71.230469 332.808594 71.234375 332.867188 71.238281 L 332.957031 71.25 L 333.046875 71.253906 C 333.285156 71.277344 333.53125 71.285156 333.773438 71.277344 C 334.011719 71.265625 334.257812 71.242188 334.496094 71.203125 C 334.734375 71.167969 334.976562 71.117188 335.210938 71.054688 C 335.449219 70.992188 335.679688 70.914062 335.910156 70.824219 C 336.023438 70.777344 336.136719 70.730469 336.246094 70.675781 C 336.359375 70.621094 336.46875 70.566406 336.574219 70.5 L 336.601562 70.539062 " fill-opacity="1" fill-rule="nonzero"></path>
  <path fill="#ffffff" d="M 287.878906 75.976562 C 287.878906 77.125 286.949219 78.054688 285.796875 78.054688 C 284.648438 78.054688 283.71875 77.125 283.71875 75.976562 C 283.71875 74.828125 284.648438 73.898438 285.796875 73.898438 C 286.949219 73.898438 287.878906 74.828125 287.878906 75.976562 " fill-opacity="1" fill-rule="nonzero"></path>
  <path fill="#ffffff" d="M 296.5 75.976562 C 296.5 77.125 295.566406 78.054688 294.421875 78.054688 C 293.269531 78.054688 292.339844 77.125 292.339844 75.976562 C 292.339844 74.828125 293.269531 73.898438 294.421875 73.898438 C 295.566406 73.898438 296.5 74.828125 296.5 75.976562 " fill-opacity="1" fill-rule="nonzero"></path>
  <path fill="#ffffff" d="M 305.125 75.976562 C 305.125 77.125 304.195312 78.054688 303.046875 78.054688 C 301.898438 78.054688 300.96875 77.125 300.96875 75.976562 C 300.96875 74.828125 301.898438 73.898438 303.046875 73.898438 C 304.195312 73.898438 305.125 74.828125 305.125 75.976562 " fill-opacity="1" fill-rule="nonzero"></path>
  <path fill="#ffffff" d="M 305.023438 58.0625 L 257.113281 58.0625 C 255.960938 58.0625 255.027344 57.128906 255.027344 55.976562 C 255.027344 54.824219 255.960938 53.890625 257.113281 53.890625 L 305.023438 53.890625 C 306.179688 53.890625 307.113281 54.824219 307.113281 55.976562 C 307.113281 57.128906 306.179688 58.0625 305.023438 58.0625 " fill-opacity="1" fill-rule="nonzero"></path>
  <path fill="#ffffff" d="M 305.023438 68.105469 L 235.332031 68.105469 C 234.175781 68.105469 233.242188 67.171875 233.242188 66.019531 C 233.242188 64.867188 234.175781 63.929688 235.332031 63.929688 L 305.023438 63.929688 C 306.179688 63.929688 307.113281 64.867188 307.113281 66.019531 C 307.113281 67.171875 306.179688 68.105469 305.023438 68.105469 " fill-opacity="1" fill-rule="nonzero"></path>
  <path fill="#ffffff" d="M 277.570312 78.078125 L 235.328125 78.078125 C 234.175781 78.078125 233.242188 77.144531 233.242188 75.992188 C 233.242188 74.835938 234.175781 73.902344 235.328125 73.902344 L 277.570312 73.902344 C 278.726562 73.902344 279.660156 74.835938 279.660156 75.992188 C 279.660156 77.144531 278.726562 78.078125 277.570312 78.078125 " fill-opacity="1" fill-rule="nonzero"></path>
  <g clip-path="url(#006ee68346)">
    <path fill="#d6d0a9" d="M 137.992188 105.507812 L 15.007812 105.507812 C 9.917969 105.507812 5.789062 109.632812 5.789062 114.71875 L 5.789062 151.375 C 5.789062 156.464844 9.917969 160.585938 15.007812 160.585938 L 116.953125 160.585938 L 127.464844 170.1875 L 127.464844 160.585938 L 137.992188 160.585938 C 143.082031 160.585938 147.210938 156.464844 147.210938 151.375 L 147.210938 114.71875 C 147.210938 109.632812 143.082031 105.507812 137.992188 105.507812 " fill-opacity="1" fill-rule="nonzero"></path>
  </g>
  <path fill="#ed1c24" d="M 58.964844 132.585938 C 58.964844 144.976562 48.910156 155.023438 36.511719 155.023438 C 24.109375 155.023438 14.058594 144.976562 14.058594 132.585938 C 14.058594 120.195312 24.109375 110.148438 36.511719 110.148438 C 48.910156 110.148438 58.964844 120.195312 58.964844 132.585938 " fill-opacity="1" fill-rule="nonzero"></path>
  <path fill="#686bea" d="M 52.695312 148.136719 C 51.390625 147.234375 50.144531 146.9375 50.144531 146.9375 C 50.140625 146.941406 50.140625 146.945312 50.136719 146.949219 C 49.382812 146.613281 48.023438 146.226562 45.226562 145.539062 C 39.300781 144.078125 38.164062 142.335938 34.351562 142.230469 C 31.960938 142.164062 30.890625 142.472656 26.835938 143.660156 C 24.328125 144.394531 21.328125 145.207031 18.40625 145.855469 C 22.496094 151.414062 29.082031 155.023438 36.511719 155.023438 C 42.871094 155.023438 48.609375 152.378906 52.695312 148.136719 " fill-opacity="1" fill-rule="nonzero"></path>
  <path fill="#1e1735" d="M 46.753906 126.875 C 46.277344 123.828125 45.578125 119.339844 42.035156 116.566406 C 40.535156 115.394531 36.742188 113.304688 33.929688 113.945312 C 33.558594 114.027344 33.371094 114.304688 32.855469 114.410156 C 31.988281 114.589844 31.421875 114.105469 29.328125 115.324219 C 24.105469 118.363281 24.648438 122.195312 23.371094 124.703125 C 21.507812 128.363281 19.53125 129.667969 18.519531 132.125 C 18.035156 133.308594 17.597656 134.683594 17.410156 136.226562 C 22.238281 140.773438 30.699219 144.632812 44.917969 140.6875 C 45.5625 139.179688 45.957031 137.789062 46.242188 136.78125 C 46.480469 135.949219 47.550781 131.976562 46.753906 126.875 " fill-opacity="1" fill-rule="nonzero"></path>
  <path fill="#ec7d40" d="M 37.652344 134.191406 C 37.714844 134.558594 37.53125 139.816406 37.59375 142.625 C 37.652344 145.4375 35.902344 147.671875 32.90625 148.222656 C 29.910156 148.769531 27.554688 147.238281 27.191406 145.621094 C 26.984375 144.710938 27.757812 137.554688 26.964844 132.90625 C 26.167969 128.261719 27.253906 127.710938 27.683594 127.710938 C 28.109375 127.710938 37.652344 134.191406 37.652344 134.191406 " fill-opacity="1" fill-rule="nonzero"></path>
  <path fill="#f79556" d="M 42.503906 120.128906 C 44.058594 123.113281 43.882812 128.273438 43.644531 129.371094 C 43.40625 130.476562 43.257812 130.324219 43.425781 130.945312 C 43.59375 131.5625 43.363281 133.332031 42.492188 135.460938 C 41.617188 137.589844 39.667969 140.375 38.757812 140.925781 C 37.84375 141.472656 36.816406 141.78125 35.5 141.570312 C 34.1875 141.359375 31.222656 139.5625 29.53125 136.789062 C 28.203125 134.613281 27.222656 132.824219 27.207031 131.410156 C 27.191406 130 26.117188 125.476562 27.53125 122.890625 C 28.945312 120.304688 30.019531 118.25 33.726562 117.269531 C 34.695312 117.015625 39.65625 114.667969 42.503906 120.128906 " fill-opacity="1" fill-rule="nonzero"></path>
  <path fill="#1e1735" d="M 40.804688 127.972656 C 40.902344 127.738281 41.058594 127.550781 41.234375 127.386719 C 41.410156 127.21875 41.613281 127.085938 41.832031 126.980469 C 42.273438 126.761719 42.796875 126.777344 43.273438 126.839844 C 43.390625 126.859375 43.511719 126.871094 43.628906 126.902344 L 43.800781 126.945312 C 43.863281 126.960938 43.925781 126.984375 43.988281 127.003906 C 44.226562 127.105469 44.429688 127.246094 44.605469 127.40625 C 44.953125 127.734375 45.183594 128.125 45.425781 128.480469 L 45.367188 128.539062 C 45.183594 128.398438 45.03125 128.242188 44.867188 128.105469 C 44.703125 127.964844 44.53125 127.839844 44.355469 127.742188 C 44.183594 127.636719 44 127.5625 43.824219 127.53125 L 43.6875 127.511719 L 43.539062 127.503906 C 43.441406 127.492188 43.34375 127.503906 43.246094 127.503906 C 43.144531 127.503906 43.046875 127.527344 42.953125 127.539062 C 42.855469 127.566406 42.761719 127.582031 42.671875 127.617188 C 42.484375 127.667969 42.304688 127.722656 42.109375 127.765625 L 41.515625 127.898438 C 41.308594 127.945312 41.097656 127.996094 40.855469 128.035156 L 40.804688 127.972656 " fill-opacity="1" fill-rule="nonzero"></path>
  <path fill="#1e1735" d="M 31.6875 126.273438 C 32.140625 125.953125 32.664062 125.734375 33.214844 125.582031 C 33.769531 125.4375 34.367188 125.398438 34.957031 125.484375 C 35.105469 125.5 35.253906 125.535156 35.402344 125.554688 C 35.550781 125.589844 35.699219 125.628906 35.847656 125.667969 C 36.140625 125.757812 36.414062 125.910156 36.644531 126.109375 C 37.101562 126.511719 37.449219 127.042969 37.511719 127.664062 L 37.425781 127.726562 C 36.878906 127.460938 36.457031 127.207031 36.027344 126.992188 C 35.816406 126.882812 35.617188 126.769531 35.417969 126.640625 C 35.316406 126.582031 35.210938 126.519531 35.105469 126.460938 C 34.996094 126.414062 34.886719 126.359375 34.769531 126.324219 C 34.539062 126.25 34.296875 126.1875 34.050781 126.160156 C 33.804688 126.121094 33.546875 126.109375 33.292969 126.113281 C 32.773438 126.113281 32.25 126.210938 31.734375 126.367188 L 31.6875 126.273438 " fill-opacity="1" fill-rule="nonzero"></path>
  <path fill="#e6e6e6" d="M 33.503906 129.105469 C 33.507812 129.246094 33.9375 129.667969 35.21875 129.652344 C 35.789062 129.644531 36.359375 129.496094 36.355469 129.210938 C 36.351562 128.9375 35.980469 128.441406 35.488281 128.367188 C 34.632812 128.234375 33.5 128.820312 33.503906 129.105469 " fill-opacity="1" fill-rule="nonzero"></path>
  <path fill="#1e1735" d="M 34.628906 128.632812 C 34.945312 127.890625 36.277344 128.183594 35.984375 129.191406 C 35.691406 130.199219 34.125 129.824219 34.628906 128.632812 " fill-opacity="1" fill-rule="nonzero"></path>
  <path fill="#e6e6e6" d="M 40.964844 129.925781 C 40.96875 130.066406 41.328125 130.480469 42.394531 130.464844 C 42.867188 130.460938 43.09375 130.222656 43.089844 129.941406 C 43.089844 129.675781 43.023438 129.285156 42.613281 129.210938 C 41.902344 129.078125 40.960938 129.648438 40.964844 129.925781 " fill-opacity="1" fill-rule="nonzero"></path>
  <path fill="#1e1735" d="M 41.78125 129.722656 C 42.046875 129.09375 43.171875 129.339844 42.921875 130.191406 C 42.675781 131.042969 41.355469 130.726562 41.78125 129.722656 " fill-opacity="1" fill-rule="nonzero"></path>
  <path fill="#1e1735" d="M 36.296875 129.371094 C 36.269531 129.175781 36.214844 129 36.125 128.875 C 36.035156 128.753906 35.925781 128.703125 35.800781 128.679688 C 35.734375 128.667969 35.664062 128.664062 35.589844 128.664062 C 35.554688 128.664062 35.515625 128.667969 35.476562 128.667969 C 35.4375 128.671875 35.394531 128.675781 35.355469 128.679688 C 35.1875 128.695312 35.015625 128.722656 34.84375 128.75 C 34.496094 128.808594 34.140625 128.875 33.777344 128.925781 C 33.414062 128.980469 33.042969 129.027344 32.644531 129.027344 C 32.792969 128.890625 32.953125 128.78125 33.117188 128.679688 C 33.28125 128.582031 33.453125 128.492188 33.628906 128.414062 C 33.980469 128.261719 34.347656 128.148438 34.738281 128.085938 C 34.933594 128.058594 35.132812 128.042969 35.335938 128.046875 C 35.390625 128.050781 35.4375 128.054688 35.492188 128.058594 C 35.546875 128.066406 35.601562 128.070312 35.660156 128.085938 C 35.769531 128.105469 35.882812 128.140625 35.992188 128.195312 C 36.097656 128.253906 36.203125 128.332031 36.28125 128.433594 C 36.359375 128.535156 36.40625 128.652344 36.429688 128.765625 C 36.449219 128.882812 36.441406 128.988281 36.417969 129.09375 C 36.394531 129.195312 36.355469 129.289062 36.296875 129.371094 " fill-opacity="1" fill-rule="nonzero"></path>
  <path fill="#1e1735" d="M 43.28125 130.160156 C 43.242188 129.996094 43.183594 129.847656 43.101562 129.753906 C 43.0625 129.707031 43.019531 129.675781 42.972656 129.65625 C 42.929688 129.640625 42.882812 129.625 42.832031 129.621094 C 42.78125 129.613281 42.722656 129.617188 42.664062 129.621094 C 42.632812 129.621094 42.601562 129.625 42.570312 129.628906 C 42.539062 129.632812 42.503906 129.636719 42.46875 129.644531 C 42.332031 129.660156 42.191406 129.6875 42.042969 129.714844 C 41.753906 129.769531 41.457031 129.828125 41.148438 129.875 C 40.835938 129.917969 40.523438 129.953125 40.175781 129.941406 C 40.292969 129.8125 40.425781 129.710938 40.5625 129.613281 C 40.699219 129.519531 40.839844 129.4375 40.988281 129.367188 C 41.28125 129.222656 41.59375 129.113281 41.921875 129.054688 C 42.089844 129.023438 42.261719 129.007812 42.4375 129.011719 C 42.484375 129.011719 42.527344 129.015625 42.574219 129.019531 C 42.621094 129.023438 42.667969 129.027344 42.71875 129.035156 C 42.816406 129.054688 42.914062 129.089844 43.011719 129.136719 C 43.109375 129.183594 43.203125 129.253906 43.269531 129.34375 C 43.34375 129.429688 43.386719 129.535156 43.402344 129.636719 C 43.417969 129.738281 43.414062 129.835938 43.390625 129.921875 C 43.371094 130.011719 43.332031 130.089844 43.28125 130.160156 " fill-opacity="1" fill-rule="nonzero"></path>
  <path fill="#1e1735" d="M 33.273438 116.066406 C 33.273438 116.066406 33.371094 116.101562 33.46875 116.152344 C 34.089844 116.472656 34.65625 117.644531 34.792969 119.097656 C 34.859375 119.816406 34.832031 120.34375 34.710938 121.015625 C 34.144531 124.191406 30.222656 124.242188 28.96875 127.285156 C 27.910156 129.855469 26.996094 128.433594 26.714844 127.382812 C 25.503906 122.863281 25.144531 119.328125 31.542969 116.21875 C 31.945312 116.023438 32.824219 115.925781 33.273438 116.066406 " fill-opacity="1" fill-rule="nonzero"></path>
  <path fill="#1e1735" d="M 34.210938 116.121094 C 34.859375 115.855469 38.914062 114.519531 42.945312 118.960938 C 45.199219 121.445312 44.84375 124.929688 44.726562 126.25 C 44.640625 127.28125 43.9375 127.917969 43.820312 127.921875 C 43.601562 127.929688 45.160156 124.164062 37.4375 121.777344 C 35.242188 121.097656 34.488281 119.605469 34.3125 119.421875 C 33.71875 118.796875 32.886719 117.535156 33.339844 116.734375 C 33.523438 116.402344 33.855469 116.265625 34.210938 116.121094 " fill-opacity="1" fill-rule="nonzero"></path>
  <path fill="#d65b5b" d="M 34.726562 137.15625 C 34.671875 137.066406 34.730469 136.953125 34.832031 136.945312 C 35.277344 136.90625 36.359375 136.832031 37.589844 136.925781 C 38.4375 136.988281 39.230469 137.1875 39.5625 137.277344 C 39.648438 137.300781 39.6875 137.398438 39.644531 137.476562 C 39.421875 137.886719 38.695312 138.957031 37.191406 138.828125 C 35.839844 138.714844 35.011719 137.609375 34.726562 137.15625 " fill-opacity="1" fill-rule="nonzero"></path>
  <path fill="#f79556" d="M 27.898438 128.429688 C 27.675781 128.015625 27.089844 127.390625 26.097656 127.90625 C 25.300781 128.320312 25.207031 129.496094 25.433594 130.902344 C 25.660156 132.3125 26.617188 133.960938 27.421875 134.195312 C 28.226562 134.425781 28.230469 133.882812 28.386719 133.179688 C 28.546875 132.480469 28.457031 129.472656 27.898438 128.429688 " fill-opacity="1" fill-rule="nonzero"></path>
  <path fill="#1e1735" d="M 46.875 132.070312 C 46.871094 132.257812 46.867188 132.4375 46.859375 132.621094 C 46.839844 132.988281 46.820312 133.351562 46.785156 133.714844 C 46.722656 134.441406 46.628906 135.167969 46.496094 135.886719 C 46.433594 136.246094 46.363281 136.601562 46.277344 136.953125 L 46.214844 137.214844 L 46.144531 137.488281 L 46.007812 138.027344 C 45.820312 138.742188 45.613281 139.449219 45.386719 140.144531 C 45.328125 140.320312 45.265625 140.492188 45.207031 140.664062 C 45.621094 140.539062 46.042969 140.40625 46.464844 140.273438 C 46.703125 139.632812 46.914062 138.980469 47.101562 138.328125 C 47.15625 138.148438 47.207031 137.964844 47.257812 137.785156 L 47.332031 137.511719 L 47.40625 137.230469 C 47.503906 136.855469 47.589844 136.480469 47.660156 136.101562 C 47.804688 135.34375 47.910156 134.582031 47.976562 133.820312 C 48.113281 132.289062 48.089844 130.75 47.929688 129.222656 L 47.859375 128.65625 C 47.832031 128.464844 47.808594 128.273438 47.773438 128.085938 C 47.710938 127.707031 47.648438 127.328125 47.570312 126.960938 C 47.425781 126.222656 47.265625 125.480469 47.074219 124.742188 C 46.679688 123.269531 46.152344 121.808594 45.355469 120.492188 C 44.964844 119.832031 44.496094 119.222656 43.976562 118.664062 C 43.460938 118.101562 42.851562 117.632812 42.230469 117.214844 L 42.632812 117.609375 C 42.699219 117.675781 42.769531 117.738281 42.832031 117.804688 L 43.019531 118.015625 C 43.140625 118.15625 43.269531 118.289062 43.386719 118.433594 L 43.722656 118.875 C 44.148438 119.476562 44.542969 120.097656 44.839844 120.769531 C 45.472656 122.09375 45.867188 123.515625 46.15625 124.953125 C 46.300781 125.679688 46.417969 126.40625 46.535156 127.144531 C 46.59375 127.515625 46.636719 127.878906 46.6875 128.242188 C 46.714844 128.421875 46.730469 128.601562 46.75 128.785156 L 46.800781 129.332031 C 46.847656 130.0625 46.894531 130.792969 46.882812 131.523438 C 46.882812 131.707031 46.882812 131.890625 46.875 132.070312 " fill-opacity="1" fill-rule="nonzero"></path>
  <path fill="#1e1735" d="M 31.644531 114.328125 C 31.207031 114.324219 30.769531 114.414062 30.355469 114.539062 C 29.9375 114.667969 29.539062 114.84375 29.152344 115.03125 L 28.578125 115.332031 C 28.386719 115.433594 28.191406 115.53125 28.011719 115.652344 L 27.464844 116.003906 C 27.371094 116.0625 27.285156 116.128906 27.199219 116.195312 L 26.9375 116.398438 C 26.582031 116.652344 26.273438 116.96875 25.949219 117.269531 C 25.339844 117.910156 24.8125 118.640625 24.398438 119.421875 C 24.296875 119.621094 24.1875 119.816406 24.105469 120.019531 C 24.015625 120.21875 23.917969 120.421875 23.84375 120.625 C 23.683594 121.03125 23.542969 121.441406 23.40625 121.84375 C 23.128906 122.648438 22.890625 123.445312 22.527344 124.121094 C 22.503906 124.164062 22.484375 124.207031 22.460938 124.25 L 22.382812 124.382812 L 22.226562 124.652344 C 22.125 124.832031 22.011719 125.003906 21.902344 125.179688 L 21.738281 125.441406 L 21.5625 125.695312 C 21.449219 125.867188 21.332031 126.035156 21.210938 126.203125 C 20.734375 126.875 20.210938 127.519531 19.667969 128.164062 C 19.132812 128.8125 18.570312 129.476562 18.070312 130.214844 C 17.828125 130.589844 17.59375 130.976562 17.402344 131.390625 C 17.355469 131.492188 17.300781 131.59375 17.257812 131.695312 L 17.128906 131.996094 C 17.042969 132.195312 16.96875 132.402344 16.890625 132.605469 C 16.601562 133.382812 16.363281 134.179688 16.199219 134.996094 C 16.480469 135.304688 16.773438 135.609375 17.085938 135.917969 C 17.121094 135.726562 17.160156 135.539062 17.203125 135.351562 C 17.390625 134.554688 17.640625 133.777344 17.949219 133.015625 C 18.027344 132.824219 18.105469 132.636719 18.1875 132.449219 L 18.3125 132.167969 C 18.355469 132.070312 18.402344 131.988281 18.445312 131.898438 C 18.617188 131.542969 18.828125 131.207031 19.050781 130.878906 C 19.507812 130.214844 20.042969 129.582031 20.589844 128.929688 C 21.136719 128.277344 21.679688 127.597656 22.175781 126.886719 C 22.304688 126.707031 22.421875 126.527344 22.542969 126.34375 L 22.71875 126.070312 L 22.890625 125.792969 C 23.003906 125.605469 23.117188 125.421875 23.222656 125.226562 L 23.382812 124.945312 L 23.460938 124.800781 C 23.484375 124.75 23.511719 124.699219 23.535156 124.648438 C 23.949219 123.8125 24.175781 122.96875 24.414062 122.160156 C 24.652344 121.355469 24.898438 120.574219 25.242188 119.84375 C 25.582031 119.109375 26.015625 118.425781 26.53125 117.800781 C 26.8125 117.503906 27.074219 117.191406 27.386719 116.925781 L 27.613281 116.71875 C 27.691406 116.648438 27.765625 116.578125 27.847656 116.519531 L 28.339844 116.140625 C 28.5 116.007812 28.675781 115.898438 28.851562 115.78125 L 29.375 115.441406 C 29.726562 115.222656 30.09375 115.023438 30.472656 114.851562 C 30.847656 114.683594 31.242188 114.554688 31.652344 114.507812 C 31.859375 114.480469 32.070312 114.472656 32.28125 114.46875 C 32.496094 114.460938 32.710938 114.449219 32.917969 114.394531 C 32.492188 114.433594 32.082031 114.324219 31.644531 114.328125 " fill-opacity="1" fill-rule="nonzero"></path>
  <path fill="#1e1735" d="M 33.726562 124.105469 C 33.726562 124.105469 39.136719 127.210938 43.96875 125.304688 C 47.457031 123.933594 43.316406 117.792969 38.773438 116.671875 C 37.082031 116.253906 33.894531 116.953125 34.472656 118.394531 C 35.664062 121.371094 33.726562 124.105469 33.726562 124.105469 " fill-opacity="1" fill-rule="nonzero"></path>
  <path fill="#ffffff" d="M 119.789062 142.578125 C 119.789062 143.726562 118.855469 144.65625 117.707031 144.65625 C 116.558594 144.65625 115.628906 143.726562 115.628906 142.578125 C 115.628906 141.433594 116.558594 140.5 117.707031 140.5 C 118.855469 140.5 119.789062 141.433594 119.789062 142.578125 " fill-opacity="1" fill-rule="nonzero"></path>
  <path fill="#ffffff" d="M 128.410156 142.578125 C 128.410156 143.726562 127.480469 144.65625 126.332031 144.65625 C 125.183594 144.65625 124.253906 143.726562 124.253906 142.578125 C 124.253906 141.433594 125.183594 140.5 126.332031 140.5 C 127.480469 140.5 128.410156 141.433594 128.410156 142.578125 " fill-opacity="1" fill-rule="nonzero"></path>
  <path fill="#ffffff" d="M 137.035156 142.578125 C 137.035156 143.726562 136.105469 144.65625 134.957031 144.65625 C 133.808594 144.65625 132.878906 143.726562 132.878906 142.578125 C 132.878906 141.433594 133.808594 140.5 134.957031 140.5 C 136.105469 140.5 137.035156 141.433594 137.035156 142.578125 " fill-opacity="1" fill-rule="nonzero"></path>
  <path fill="#ffffff" d="M 136.933594 124.664062 L 89.023438 124.664062 C 87.871094 124.664062 86.9375 123.730469 86.9375 122.578125 C 86.9375 121.425781 87.871094 120.488281 89.023438 120.488281 L 136.933594 120.488281 C 138.089844 120.488281 139.023438 121.425781 139.023438 122.578125 C 139.023438 123.730469 138.089844 124.664062 136.933594 124.664062 " fill-opacity="1" fill-rule="nonzero"></path>
  <path fill="#ffffff" d="M 136.933594 134.707031 L 67.242188 134.707031 C 66.085938 134.707031 65.152344 133.773438 65.152344 132.621094 C 65.152344 131.46875 66.085938 130.535156 67.242188 130.535156 L 136.933594 130.535156 C 138.089844 130.535156 139.023438 131.46875 139.023438 132.621094 C 139.023438 133.773438 138.089844 134.707031 136.933594 134.707031 " fill-opacity="1" fill-rule="nonzero"></path>
  <path fill="#ffffff" d="M 109.480469 144.679688 L 67.242188 144.679688 C 66.085938 144.679688 65.152344 143.746094 65.152344 142.59375 C 65.152344 141.4375 66.085938 140.503906 67.242188 140.503906 L 109.480469 140.503906 C 110.636719 140.503906 111.570312 141.4375 111.570312 142.59375 C 111.570312 143.746094 110.636719 144.679688 109.480469 144.679688 " fill-opacity="1" fill-rule="nonzero"></path>
  <path fill="#d6d0a9" d="M 168.023438 67.746094 L 86.363281 67.746094 C 81.804688 67.746094 78.109375 71.4375 78.109375 75.996094 L 78.109375 82.871094 C 78.109375 87.429688 81.804688 91.125 86.363281 91.125 L 149.179688 91.125 L 158.59375 99.722656 L 158.59375 91.125 L 168.023438 91.125 C 172.582031 91.125 176.277344 87.429688 176.277344 82.871094 L 176.277344 75.996094 C 176.277344 71.4375 172.582031 67.746094 168.023438 67.746094 " fill-opacity="1" fill-rule="nonzero"></path>
  <path fill="#ed1c24" d="M 96.625 71.691406 L 98.816406 76.125 L 103.714844 76.839844 L 100.171875 80.292969 L 101.007812 85.167969 L 96.625 82.867188 L 92.242188 85.167969 L 93.082031 80.292969 L 89.535156 76.839844 L 94.433594 76.125 L 96.625 71.691406 " fill-opacity="1" fill-rule="nonzero"></path>
  <path fill="#ed1c24" d="M 111.910156 71.691406 L 114.101562 76.125 L 119 76.839844 L 115.453125 80.292969 L 116.289062 85.167969 L 111.910156 82.867188 L 107.527344 85.167969 L 108.363281 80.292969 L 104.820312 76.839844 L 109.71875 76.125 L 111.910156 71.691406 " fill-opacity="1" fill-rule="nonzero"></path>
  <path fill="#ed1c24" d="M 127.195312 71.691406 L 129.382812 76.125 L 134.28125 76.839844 L 130.738281 80.292969 L 131.574219 85.167969 L 127.195312 82.867188 L 122.8125 85.167969 L 123.648438 80.292969 L 120.105469 76.839844 L 125.003906 76.125 L 127.195312 71.691406 " fill-opacity="1" fill-rule="nonzero"></path>
  <path fill="#ffffff" d="M 142.476562 71.691406 L 144.667969 76.125 L 149.566406 76.839844 L 146.023438 80.292969 L 146.859375 85.167969 L 142.476562 82.867188 L 138.097656 85.167969 L 138.933594 80.292969 L 135.386719 76.839844 L 140.285156 76.125 L 142.476562 71.691406 " fill-opacity="1" fill-rule="nonzero"></path>
  <path fill="#ffffff" d="M 157.761719 71.691406 L 159.953125 76.125 L 164.851562 76.839844 L 161.304688 80.292969 L 162.144531 85.167969 L 157.761719 82.867188 L 153.378906 85.167969 L 154.21875 80.292969 L 150.671875 76.839844 L 155.570312 76.125 L 157.761719 71.691406 " fill-opacity="1" fill-rule="nonzero"></path>
  <path fill="#d6d0a9" d="M 179.3125 254.761719 C 179.273438 254.847656 179.234375 254.929688 179.199219 255.011719 L 185.832031 261.703125 C 186.398438 261.757812 186.996094 261.804688 187.621094 261.839844 L 179.671875 253.96875 C 179.554688 254.234375 179.4375 254.496094 179.3125 254.761719 " fill-opacity="1" fill-rule="nonzero"></path>
  <path fill="#d6d0a9" d="M 206.582031 218.535156 L 221.523438 203.742188 L 236.464844 218.535156 L 221.523438 233.328125 Z M 205.722656 248.972656 L 190.917969 234.039062 L 205.859375 219.246094 L 220.664062 234.175781 Z M 175.613281 218.601562 L 190.417969 203.667969 L 205.21875 218.601562 L 190.417969 233.53125 Z M 174.664062 217.640625 L 159.859375 202.710938 L 174.800781 187.917969 L 189.605469 202.847656 Z M 190.171875 172.699219 L 205.113281 187.492188 L 190.171875 202.289062 L 175.230469 187.492188 Z M 220.730469 202.957031 L 205.929688 217.886719 L 190.984375 203.09375 L 205.789062 188.164062 Z M 221.476562 172.339844 L 236.28125 187.269531 L 221.476562 202.203125 L 206.671875 187.269531 Z M 244.1875 243.378906 C 244.042969 243.054688 243.894531 242.726562 243.742188 242.40625 L 237.277344 248.925781 L 222.335938 234.132812 L 237.140625 219.203125 L 237.179688 219.242188 C 237.199219 218.75 237.226562 218.25 237.269531 217.738281 L 237.074219 217.933594 L 222.269531 203 L 237.210938 188.207031 L 252.015625 203.136719 L 238.691406 216.332031 C 238.757812 216.707031 238.820312 217.078125 238.886719 217.441406 L 252.539062 203.667969 L 259.667969 210.859375 C 259.667969 210.234375 259.667969 209.617188 259.664062 209.011719 L 253.398438 202.804688 L 259.378906 196.769531 C 259.363281 196.476562 259.34375 196.1875 259.328125 195.898438 L 252.875 202.289062 L 237.933594 187.492188 L 251.359375 174.203125 C 250.9375 173.914062 250.488281 173.660156 250.003906 173.433594 L 236.988281 186.558594 L 222.046875 171.765625 L 227.664062 166.101562 C 227.445312 166.003906 227.226562 165.910156 227.011719 165.8125 L 221.523438 171.246094 L 210.523438 160.359375 C 210.1875 160.328125 209.855469 160.304688 209.527344 160.285156 L 220.953125 171.808594 L 206.011719 186.601562 L 191.210938 171.671875 L 202.414062 160.578125 C 201.691406 160.675781 200.976562 160.796875 200.277344 160.925781 L 190.417969 170.871094 L 183.902344 164.300781 C 183.480469 164.332031 183.054688 164.355469 182.621094 164.367188 C 182.339844 164.375 182.066406 164.390625 181.792969 164.40625 L 189.378906 171.917969 L 174.578125 186.847656 L 163.34375 175.726562 C 163.265625 175.859375 163.1875 175.992188 163.113281 176.128906 L 174.160156 187.269531 L 159.355469 202.203125 L 158.246094 201.085938 C 158.1875 201.679688 158.121094 202.300781 158.035156 202.960938 L 158.320312 203.246094 L 157.945312 203.625 C 157.890625 203.996094 157.832031 204.382812 157.769531 204.777344 L 158.820312 203.742188 L 173.761719 218.535156 L 171.132812 221.136719 C 171.390625 221.53125 171.652344 221.929688 171.917969 222.328125 L 174.730469 219.492188 L 189.671875 234.285156 L 181.769531 242.257812 C 181.792969 242.515625 181.8125 242.777344 181.832031 243.039062 L 190.171875 234.78125 L 205.113281 249.574219 L 192.527344 262.035156 C 193.210938 262.050781 193.910156 262.066406 194.625 262.082031 L 206.078125 250.53125 L 219.398438 263.714844 C 219.75 263.75 220.09375 263.78125 220.4375 263.8125 L 206.671875 249.929688 L 221.476562 235 L 236.28125 249.929688 L 222.339844 263.992188 C 222.65625 264.023438 222.972656 264.050781 223.28125 264.078125 L 236.921875 250.574219 L 247.78125 261.527344 C 248.207031 261.234375 248.625 260.914062 249.035156 260.566406 L 237.933594 249.574219 L 244.1875 243.378906 " fill-opacity="1" fill-rule="nonzero"></path>
  <path fill="#f79556" d="M 247.015625 201.886719 C 245.722656 210.375 244.792969 210.492188 243.558594 220.148438 C 242.714844 226.769531 243.328125 231.035156 244.792969 235.445312 C 245.765625 238.363281 246.066406 241.558594 249.734375 243.589844 C 250.320312 243.914062 253.1875 245.964844 257.386719 244.332031 C 257.945312 244.113281 263.316406 240.136719 265.042969 228.785156 C 265.984375 222.597656 265.601562 206.550781 262.328125 193.003906 C 258.234375 176.085938 258.90625 178.808594 257.386719 173.757812 C 255.90625 168.820312 255.410156 160.1875 249.980469 158.953125 C 248.160156 158.539062 246.253906 159.992188 245.289062 161.417969 C 244.019531 163.296875 245.449219 165.445312 246.03125 168.820312 C 248.375 182.515625 248.355469 193.113281 247.015625 201.886719 " fill-opacity="1" fill-rule="nonzero"></path>
  <path fill="#ffffff" d="M 192.273438 136.617188 C 192.273438 140.167969 190.714844 147.210938 189.390625 148.230469 C 187.789062 149.464844 185.398438 148.933594 185.007812 148.785156 C 182.679688 147.886719 180.921875 143.335938 180.921875 136.617188 C 180.921875 129.898438 182.566406 124.953125 185.007812 124.453125 C 185.242188 124.40625 188.460938 123.585938 189.753906 125.308594 C 191.863281 128.117188 192.273438 132.664062 192.273438 136.617188 " fill-opacity="1" fill-rule="nonzero"></path>
  <path fill="#686bea" d="M 192.347656 136.621094 C 192.347656 143.339844 190.515625 148.789062 188.261719 148.789062 C 186.003906 148.789062 184.175781 143.339844 184.175781 136.621094 C 184.175781 129.90625 186.003906 124.457031 188.261719 124.457031 C 190.515625 124.457031 192.347656 129.90625 192.347656 136.621094 " fill-opacity="1" fill-rule="nonzero"></path>
  <path fill="#ec7d40" d="M 198.101562 150.726562 C 197.417969 153.015625 199.941406 167.347656 200.429688 168.535156 C 202.03125 172.410156 206.9375 175.5625 211.753906 175.421875 C 218.441406 175.226562 221.085938 170.269531 220.910156 165.425781 C 220.675781 158.898438 220.425781 152.976562 221.492188 140.023438 C 221.777344 136.546875 199.421875 146.304688 198.101562 150.726562 " fill-opacity="1" fill-rule="nonzero"></path>
  <path fill="#d66730" d="M 206.988281 143.433594 C 209.472656 142.527344 209.53125 141.277344 212.804688 142.492188 C 215.121094 143.351562 216.894531 145.589844 218.175781 148.476562 C 217.347656 152.285156 215.109375 156.5625 212.628906 159.488281 C 210.980469 161.433594 208.425781 164.453125 204.082031 164.964844 C 202.765625 165.121094 201.289062 165.042969 199.863281 164.710938 C 198.839844 160.296875 197.300781 152.425781 197.808594 150.726562 C 199.128906 146.304688 204.625 144.296875 206.988281 143.433594 " fill-opacity="1" fill-rule="nonzero"></path>
  <path fill="#f79556" d="M 227.175781 122.625 C 227.300781 116.640625 224.367188 112.136719 223.300781 110.546875 C 218.214844 102.960938 212.75 100.988281 210.71875 100.519531 C 203.660156 98.882812 197.625 99.007812 192.015625 103.253906 C 181.777344 111.003906 183.398438 128.0625 184.148438 133.335938 C 184.871094 138.417969 188.082031 153.714844 196.578125 160.230469 C 198.042969 161.351562 199.875 162.609375 202.925781 162.507812 C 207.199219 162.367188 211.15625 159.253906 212.582031 157.722656 C 217.519531 152.425781 218.699219 148.535156 220.523438 138.804688 C 222.390625 128.875 227.054688 128.613281 227.175781 122.625 " fill-opacity="1" fill-rule="nonzero"></path>
  <path fill="#ed1c24" d="M 205.929688 153.378906 C 206.039062 153.191406 205.914062 152.960938 205.699219 152.945312 C 204.777344 152.886719 202.542969 152.800781 200.003906 153.054688 C 198.265625 153.230469 196.632812 153.679688 195.957031 153.886719 C 195.777344 153.9375 195.699219 154.144531 195.792969 154.304688 C 196.273438 155.140625 197.832031 157.308594 200.929688 156.964844 C 203.71875 156.652344 205.367188 154.324219 205.929688 153.378906 " fill-opacity="1" fill-rule="nonzero"></path>
  <path fill="#1e1735" d="M 192.699219 131.40625 C 192.453125 130.769531 192.050781 130.246094 191.585938 129.789062 C 191.121094 129.324219 190.582031 128.945312 189.996094 128.640625 C 188.816406 128.019531 187.402344 128.015625 186.109375 128.148438 C 185.785156 128.183594 185.460938 128.210938 185.144531 128.289062 L 184.667969 128.386719 C 184.503906 128.429688 184.332031 128.484375 184.164062 128.535156 C 183.507812 128.785156 182.945312 129.160156 182.460938 129.578125 C 181.496094 130.429688 184.082031 130.046875 184.566406 129.976562 L 184.929688 129.9375 L 185.332031 129.925781 C 185.601562 129.90625 185.871094 129.933594 186.132812 129.945312 C 186.398438 129.960938 186.660156 130.023438 186.917969 130.066406 C 187.175781 130.144531 187.429688 130.203125 187.679688 130.296875 C 188.175781 130.457031 188.664062 130.621094 189.179688 130.738281 L 190.777344 131.148438 C 191.332031 131.296875 191.902344 131.445312 192.554688 131.578125 L 192.699219 131.40625 " fill-opacity="1" fill-rule="nonzero"></path>
  <path fill="#1e1735" d="M 215.070312 128.011719 C 214.011719 127.21875 212.78125 126.65625 211.472656 126.257812 C 210.160156 125.871094 208.742188 125.738281 207.320312 125.898438 C 206.964844 125.925781 206.613281 126.003906 206.253906 126.042969 C 205.898438 126.109375 205.542969 126.191406 205.183594 126.273438 C 204.480469 126.472656 203.816406 126.8125 203.253906 127.277344 C 202.132812 128.203125 201.265625 129.453125 201.070312 130.929688 L 201.277344 131.082031 C 202.597656 130.480469 203.621094 129.910156 204.660156 129.425781 C 205.171875 129.179688 205.65625 128.917969 206.144531 128.628906 C 206.394531 128.496094 206.644531 128.351562 206.902344 128.222656 C 207.167969 128.117188 207.433594 127.992188 207.710938 127.914062 C 208.269531 127.757812 208.847656 127.625 209.441406 127.578125 C 210.03125 127.503906 210.640625 127.488281 211.253906 127.519531 C 212.488281 127.558594 213.734375 127.828125 214.949219 128.238281 L 215.070312 128.011719 " fill-opacity="1" fill-rule="nonzero"></path>
  <path fill="#e6e6e6" d="M 210.535156 134.640625 C 210.519531 134.980469 209.460938 135.957031 206.402344 135.828125 C 205.042969 135.769531 203.699219 135.371094 203.726562 134.691406 C 203.753906 134.042969 204.675781 132.886719 205.851562 132.742188 C 207.90625 132.488281 210.566406 133.960938 210.535156 134.640625 " fill-opacity="1" fill-rule="nonzero"></path>
  <path fill="#1e1735" d="M 208.203125 133.777344 C 207.503906 131.984375 204.300781 132.589844 204.929688 135.015625 C 205.5625 137.449219 209.328125 136.660156 208.203125 133.777344 " fill-opacity="1" fill-rule="nonzero"></path>
  <path fill="#1e1735" d="M 203.398438 135.195312 C 203.761719 134.84375 204.105469 134.558594 204.46875 134.394531 C 204.828125 134.226562 205.179688 134.15625 205.550781 134.140625 C 206.289062 134.105469 207.101562 134.261719 207.957031 134.414062 C 208.816406 134.570312 209.722656 134.742188 210.699219 134.785156 C 211.183594 134.800781 211.699219 134.789062 212.21875 134.65625 C 212.472656 134.59375 212.738281 134.488281 212.964844 134.335938 C 213.195312 134.175781 213.375 133.953125 213.449219 133.714844 C 213.214844 133.816406 213 133.855469 212.796875 133.851562 C 212.582031 133.832031 212.390625 133.808594 212.183594 133.746094 C 211.78125 133.644531 211.375 133.5 210.957031 133.355469 C 210.121094 133.0625 209.242188 132.761719 208.289062 132.59375 C 207.339844 132.429688 206.28125 132.347656 205.210938 132.730469 C 204.6875 132.925781 204.179688 133.269531 203.859375 133.722656 C 203.539062 134.175781 203.390625 134.695312 203.398438 135.195312 " fill-opacity="1" fill-rule="nonzero"></path>
  <path fill="#e6e6e6" d="M 191.792969 136.171875 C 191.765625 136.5 190.726562 137.40625 187.859375 137.164062 C 186.582031 137.054688 186.011719 136.449219 186.066406 135.792969 C 186.121094 135.164062 186.359375 134.246094 187.472656 134.148438 C 189.414062 133.984375 191.847656 135.515625 191.792969 136.171875 " fill-opacity="1" fill-rule="nonzero"></path>
  <path fill="#1e1735" d="M 189.496094 135.375 C 188.929688 133.714844 185.988281 134.144531 186.46875 136.375 C 186.949219 138.613281 190.40625 138.039062 189.496094 135.375 " fill-opacity="1" fill-rule="nonzero"></path>
  <path fill="#1e1735" d="M 185.328125 136.03125 C 185.710938 135.835938 186.039062 135.644531 186.367188 135.515625 C 186.695312 135.390625 186.996094 135.324219 187.277344 135.316406 C 187.828125 135.292969 188.367188 135.464844 189.011719 135.699219 C 189.652344 135.933594 190.359375 136.238281 191.1875 136.40625 C 191.605469 136.480469 192.0625 136.527344 192.527344 136.429688 C 192.992188 136.332031 193.425781 136.054688 193.613281 135.664062 C 193.183594 135.734375 192.847656 135.671875 192.550781 135.550781 C 192.253906 135.433594 191.964844 135.261719 191.667969 135.085938 C 191.066406 134.730469 190.417969 134.316406 189.628906 134.027344 C 189.230469 133.882812 188.796875 133.765625 188.328125 133.734375 C 187.859375 133.707031 187.347656 133.769531 186.890625 133.96875 C 186.4375 134.167969 186.066406 134.488281 185.804688 134.847656 C 185.550781 135.214844 185.398438 135.613281 185.328125 136.03125 " fill-opacity="1" fill-rule="nonzero"></path>
  <path fill="#d66730" d="M 244.058594 147.070312 C 243.378906 144.519531 241.917969 142.628906 241.300781 140.066406 C 241.257812 139.898438 241.15625 139.269531 240.632812 138.875 C 239.367188 137.910156 236.703125 137.621094 233.785156 136.125 C 233.464844 135.960938 231.582031 134.730469 231.085938 135.023438 C 230.644531 135.285156 230.230469 135.910156 230.335938 136.480469 C 230.398438 136.816406 230.351562 138.050781 231.867188 139 C 234.390625 140.578125 237.328125 141.296875 237.699219 141.652344 C 238.28125 142.203125 237.839844 144.136719 237.847656 144.90625 C 237.917969 151.011719 241.226562 152.085938 240.9375 154.746094 C 240.878906 155.285156 240.632812 156.136719 239.992188 156.417969 C 239.132812 156.796875 238.402344 156.539062 235.667969 155.390625 C 235.199219 155.195312 229.4375 152.816406 228.289062 154.5 C 227.882812 155.09375 228.363281 156.125 228.992188 156.503906 C 229.511719 156.820312 231.359375 157.800781 233.160156 158.558594 C 235.75 159.652344 236.296875 159.84375 237.328125 160.613281 C 238.375 161.390625 238.136719 161.050781 239.242188 162.359375 C 240.90625 164.332031 242.960938 165.15625 244.074219 165.605469 C 245.953125 166.359375 248.691406 166.261719 249.964844 165.136719 C 251.183594 164.058594 250.476562 162.648438 249.507812 159.453125 C 247.421875 152.578125 245.523438 152.585938 244.058594 147.070312 " fill-opacity="1" fill-rule="nonzero"></path>
  <path fill="#1e1735" d="M 240.054688 139.105469 C 234.378906 136.320312 228.539062 134 223.511719 132.621094 C 202.402344 126.820312 194.71875 112.582031 194.71875 112.582031 C 194.71875 112.582031 174.746094 134.960938 180.507812 152.496094 C 182.582031 158.800781 185.171875 161.542969 185.277344 163.046875 C 184.628906 163.042969 183.960938 163.296875 183.265625 163.214844 C 183.144531 163.203125 183.609375 163.191406 183.488281 163.179688 C 181.441406 160.09375 177.847656 152.496094 177.847656 152.496094 C 175.328125 145.246094 176.328125 138.976562 178.328125 126.4375 C 179.132812 121.375 180.179688 113.496094 185.613281 105.476562 C 190.054688 98.917969 195.980469 98.441406 198.269531 98.667969 C 199.191406 98.933594 199.109375 99.082031 199.273438 99.015625 C 211.644531 94.058594 223.550781 97.734375 231.425781 115.722656 C 236.375 127.027344 246.894531 133.621094 250.878906 141.339844 C 255.738281 150.753906 255.617188 157.046875 255.367188 158.035156 C 255.238281 158.550781 252.191406 145.070312 240.054688 139.105469 " fill-opacity="1" fill-rule="nonzero"></path>
  <path fill="#1e1735" d="M 201.132812 98.871094 C 204.941406 98.027344 208.855469 97.910156 212.5625 98.695312 C 213.488281 98.898438 214.398438 99.136719 215.289062 99.445312 C 216.175781 99.753906 217.046875 100.109375 217.890625 100.515625 C 219.582031 101.3125 221.152344 102.34375 222.578125 103.535156 C 225.457031 105.902344 227.71875 108.953125 229.4375 112.273438 C 229.648438 112.691406 229.847656 113.117188 230.054688 113.539062 C 230.273438 113.980469 230.484375 114.445312 230.71875 114.886719 C 231.171875 115.785156 231.679688 116.652344 232.203125 117.511719 C 233.261719 119.210938 234.449219 120.824219 235.707031 122.359375 C 238.234375 125.429688 241.058594 128.171875 243.800781 130.894531 C 245.171875 132.257812 246.527344 133.617188 247.75 135.066406 C 248.976562 136.496094 250.035156 138.078125 250.96875 139.734375 C 251.894531 141.390625 252.675781 143.132812 253.273438 144.941406 C 253.882812 146.746094 254.320312 148.613281 254.582031 150.511719 C 255.101562 154.316406 254.941406 158.222656 254.3125 162.058594 C 255.296875 158.296875 255.761719 154.355469 255.46875 150.417969 C 255.320312 148.453125 254.984375 146.492188 254.460938 144.578125 C 253.929688 142.667969 253.199219 140.804688 252.3125 139.023438 C 251.867188 138.132812 251.382812 137.265625 250.863281 136.414062 C 250.601562 135.996094 250.332031 135.570312 250.050781 135.148438 C 249.765625 134.738281 249.476562 134.332031 249.175781 133.929688 C 247.96875 132.339844 246.671875 130.851562 245.347656 129.414062 C 242.695312 126.539062 239.996094 123.785156 237.621094 120.808594 C 237.027344 120.066406 236.449219 119.3125 235.894531 118.542969 C 235.347656 117.773438 234.824219 116.988281 234.320312 116.191406 C 233.828125 115.390625 233.347656 114.582031 232.917969 113.746094 C 232.695312 113.332031 232.503906 112.914062 232.289062 112.484375 C 232.058594 112.035156 231.839844 111.585938 231.605469 111.140625 C 230.65625 109.363281 229.542969 107.664062 228.25 106.101562 C 226.964844 104.539062 225.503906 103.105469 223.875 101.890625 C 222.25 100.679688 220.476562 99.660156 218.605469 98.902344 C 216.738281 98.121094 214.761719 97.652344 212.78125 97.382812 C 211.789062 97.265625 210.789062 97.195312 209.792969 97.210938 C 208.800781 97.21875 207.808594 97.273438 206.828125 97.40625 C 205.847656 97.53125 204.878906 97.730469 203.925781 97.964844 L 203.214844 98.160156 C 202.980469 98.226562 202.746094 98.304688 202.515625 98.378906 C 202.046875 98.515625 201.589844 98.703125 201.132812 98.871094 " fill-opacity="1" fill-rule="nonzero"></path>
  <path fill="#686bea" d="M 220.421875 137.160156 C 220.421875 148.148438 213.875 158.027344 205.953125 158.027344 C 205.429688 158.027344 204.910156 157.984375 204.394531 157.90625 C 204.394531 157.886719 204.402344 157.867188 204.402344 157.847656 C 204.402344 156.75 202.957031 155.863281 201.179688 155.863281 C 199.398438 155.863281 197.957031 156.75 197.957031 157.847656 C 197.957031 158.941406 199.398438 159.828125 201.179688 159.828125 C 202.332031 159.828125 203.339844 159.453125 203.910156 158.894531 C 204.742188 159.109375 205.675781 159.195312 206.742188 159.195312 C 215.761719 159.195312 223.390625 149.90625 223.390625 137.625 L 220.421875 137.160156 " fill-opacity="1" fill-rule="nonzero"></path>
  <path fill="#686bea" d="M 190.347656 100.652344 L 190.449219 100.5625 C 190.914062 100.152344 193.503906 97.957031 199.46875 97.902344 C 214.339844 97.765625 225.367188 110.503906 225.367188 127.167969 L 222.191406 127.800781 C 222.191406 112.890625 210.902344 99.179688 198.199219 99.019531 C 193.542969 98.960938 191.28125 100.015625 190.347656 100.660156 L 190.347656 100.652344 " fill-opacity="1" fill-rule="nonzero"></path>
  <path fill="#ffffff" d="M 229.746094 136.617188 C 229.746094 140.167969 228.1875 147.210938 226.867188 148.230469 C 225.265625 149.464844 222.875 148.933594 222.484375 148.785156 C 220.152344 147.886719 218.398438 143.335938 218.398438 136.617188 C 218.398438 129.898438 220.039062 124.953125 222.484375 124.453125 C 222.71875 124.40625 225.933594 123.585938 227.230469 125.308594 C 229.339844 128.117188 229.746094 132.664062 229.746094 136.617188 " fill-opacity="1" fill-rule="nonzero"></path>
  <path fill="#d6d0a9" d="M 229.820312 136.621094 C 229.820312 143.339844 227.992188 148.789062 225.738281 148.789062 C 223.480469 148.789062 221.648438 143.339844 221.648438 136.621094 C 221.648438 129.90625 223.480469 124.457031 225.738281 124.457031 C 227.992188 124.457031 229.820312 129.90625 229.820312 136.621094 " fill-opacity="1" fill-rule="nonzero"></path>
  <path fill="#686bea" d="M 229.457031 136.621094 C 229.457031 142.476562 227.90625 147.21875 225.988281 147.21875 C 224.074219 147.21875 222.519531 142.476562 222.519531 136.621094 C 222.519531 130.769531 224.074219 126.023438 225.988281 126.023438 C 227.90625 126.023438 229.457031 130.769531 229.457031 136.621094 " fill-opacity="1" fill-rule="nonzero"></path>
  <path fill="#f79556" d="M 232.191406 149.789062 C 231.855469 149.746094 231.355469 149.671875 230.714844 149.789062 C 230.0625 149.910156 229.679688 150.148438 228.8125 150.632812 C 226.707031 151.8125 226.890625 151.574219 226.496094 151.898438 C 225.476562 152.734375 225.691406 153.160156 224.597656 154.003906 C 224.074219 154.40625 222.695312 155.128906 221.222656 154.214844 C 220.691406 153.890625 220.976562 153.105469 221.011719 152.953125 C 221.113281 152.492188 221.351562 152.347656 222.277344 151.265625 C 222.964844 150.460938 223.203125 150.109375 223.121094 150 C 223.066406 149.933594 221.855469 150.210938 221.855469 149.15625 C 221.855469 148.660156 222.191406 148.25 222.699219 147.683594 C 224.460938 145.707031 224.625 145.15625 225.863281 144.308594 C 226.039062 144.191406 226.558594 143.785156 227.757812 143.464844 C 230.925781 142.625 232.652344 141.371094 234.089844 141.78125 C 235.566406 142.203125 244.625 145.003906 245.265625 145.363281 C 246.335938 145.964844 246.78125 147.046875 246.957031 147.472656 C 248.695312 151.695312 252.152344 158.0625 252.859375 159.273438 C 253.226562 159.902344 254.125 165.175781 250.75 166.230469 C 248.214844 167.023438 245.96875 165.582031 245.6875 165.386719 C 244.644531 164.667969 244.148438 163.78125 243.15625 162.015625 C 241.417969 158.90625 241.394531 157.207031 239.992188 156.535156 C 239.882812 156.480469 238.964844 156.054688 237.671875 155.691406 C 237.222656 155.566406 236.996094 155.503906 236.832031 155.480469 C 235.128906 155.261719 232.675781 156.015625 232.398438 156.113281 C 232.015625 156.25 230.90625 157.453125 227.550781 159.273438 C 227.113281 159.511719 225.230469 160.539062 224.386719 159.695312 C 224.007812 159.320312 224.167969 158.671875 224.175781 158.640625 C 224.359375 157.890625 225.164062 157.5625 225.863281 157.167969 C 227.859375 156.035156 227.527344 155.175781 229.871094 153.585938 C 230.625 153.070312 231.257812 152.691406 232.191406 152.320312 C 235.351562 151.054688 237.460938 152.109375 237.671875 151.265625 C 237.835938 150.617188 235.523438 150.238281 232.191406 149.789062 " fill-opacity="1" fill-rule="nonzero"></path>
  <path fill="#d66730" d="M 239.785156 146.839844 C 238.351562 146.300781 236.90625 145.832031 235.445312 145.394531 C 234.71875 145.171875 233.980469 144.972656 233.242188 144.777344 C 232.867188 144.679688 232.507812 144.589844 232.097656 144.519531 C 231.6875 144.460938 231.261719 144.457031 230.84375 144.535156 C 230.644531 144.566406 230.398438 144.65625 230.222656 144.738281 C 230.039062 144.820312 229.867188 144.90625 229.695312 144.996094 C 229.351562 145.175781 229.011719 145.355469 228.679688 145.542969 C 228.019531 145.925781 227.359375 146.304688 226.714844 146.699219 L 225.738281 147.273438 C 225.367188 147.492188 225.085938 147.777344 224.824219 148.0625 C 224.3125 148.644531 223.875 149.253906 223.332031 149.789062 C 223.980469 149.378906 224.515625 148.808594 225.082031 148.320312 C 225.359375 148.074219 225.652344 147.84375 225.957031 147.707031 C 226.308594 147.550781 226.648438 147.375 226.992188 147.207031 C 227.675781 146.867188 228.339844 146.503906 229.015625 146.160156 C 229.355469 145.984375 229.683594 145.808594 230.019531 145.640625 C 230.1875 145.558594 230.355469 145.480469 230.519531 145.40625 C 230.691406 145.335938 230.800781 145.292969 230.980469 145.261719 C 231.3125 145.195312 231.652344 145.191406 231.996094 145.238281 C 232.335938 145.285156 232.714844 145.378906 233.082031 145.457031 L 235.300781 145.953125 C 236.785156 146.28125 238.273438 146.597656 239.785156 146.839844 " fill-opacity="1" fill-rule="nonzero"></path>
  <path fill="#1e1735" d="M 171.828125 222.613281 C 171.324219 220.761719 170.734375 218.953125 170.273438 217.144531 C 169.808594 215.34375 169.46875 213.546875 169.390625 211.761719 C 169.3125 209.972656 169.4375 208.199219 169.875 206.492188 C 170.28125 204.769531 170.992188 203.105469 171.695312 201.3125 C 172.398438 199.535156 173.027344 197.566406 173.164062 195.527344 C 173.230469 194.507812 173.214844 193.507812 173.117188 192.515625 C 173.011719 191.523438 172.84375 190.550781 172.597656 189.597656 C 172.117188 187.691406 171.390625 185.875 170.484375 184.167969 C 170.03125 183.3125 169.527344 182.492188 168.984375 181.703125 C 168.445312 180.90625 167.851562 180.152344 167.21875 179.441406 C 167.6875 180.269531 168.121094 181.113281 168.523438 181.964844 C 168.722656 182.390625 168.914062 182.820312 169.089844 183.257812 C 169.269531 183.6875 169.441406 184.125 169.601562 184.5625 C 170.246094 186.316406 170.726562 188.113281 171.003906 189.921875 C 171.140625 190.824219 171.230469 191.730469 171.246094 192.632812 C 171.253906 193.082031 171.246094 193.53125 171.226562 193.976562 C 171.199219 194.421875 171.152344 194.859375 171.078125 195.292969 C 170.949219 196.164062 170.71875 197.011719 170.441406 197.859375 C 170.15625 198.703125 169.816406 199.546875 169.453125 200.40625 C 169.082031 201.265625 168.714844 202.152344 168.363281 203.070312 C 168.019531 203.992188 167.71875 204.949219 167.496094 205.9375 C 167.058594 207.917969 166.976562 209.980469 167.253906 211.960938 C 167.523438 213.953125 168.148438 215.855469 168.957031 217.617188 C 169.769531 219.378906 170.742188 221.03125 171.828125 222.613281 " fill-opacity="1" fill-rule="nonzero"></path>
  <path fill="#1e1735" d="M 246.507812 186.195312 C 245.21875 186.9375 244.105469 188.023438 243.21875 189.257812 C 242.316406 190.484375 241.640625 191.855469 241.070312 193.253906 C 239.949219 196.066406 239.304688 199 238.816406 201.921875 C 238.335938 204.847656 238.027344 207.78125 237.796875 210.714844 C 237.574219 213.652344 237.414062 216.589844 237.402344 219.554688 C 238.230469 216.703125 238.816406 213.808594 239.335938 210.914062 C 239.855469 208.015625 240.292969 205.117188 240.761719 202.242188 C 241.242188 199.371094 241.738281 196.515625 242.53125 193.761719 C 242.933594 192.386719 243.402344 191.035156 244.042969 189.757812 C 244.351562 189.109375 244.726562 188.5 245.125 187.898438 C 245.332031 187.601562 245.542969 187.304688 245.78125 187.027344 C 246 186.730469 246.261719 186.480469 246.507812 186.195312 " fill-opacity="1" fill-rule="nonzero"></path>
  <path fill="#1e1735" d="M 46.324219 265.554688 L 341.054688 265.554688 C 343.84375 265.554688 346.105469 263.296875 346.105469 260.507812 C 346.105469 257.722656 343.84375 255.460938 341.054688 255.460938 L 46.324219 255.460938 C 43.535156 255.460938 41.273438 257.722656 41.273438 260.507812 C 41.273438 263.296875 43.535156 265.554688 46.324219 265.554688 " fill-opacity="1" fill-rule="nonzero"></path>
  <path fill="#1e1735" d="M 218.449219 255.730469 L 130.40625 255.730469 L 130.40625 251.589844 L 216.472656 251.589844 C 217.074219 251.589844 219.171875 254.367188 219.171875 254.367188 C 219.640625 254.90625 219.242188 255.722656 218.464844 255.730469 C 218.460938 255.730469 218.453125 255.730469 218.449219 255.730469 " fill-opacity="1" fill-rule="nonzero"></path>
  <path fill="#ed1c24" d="M 160.316406 255.730469 L 88.125 255.730469 C 85.074219 255.730469 82.402344 253.707031 81.574219 250.777344 L 64.53125 190.222656 C 63.960938 188.207031 65.476562 186.210938 67.570312 186.210938 L 140.582031 186.210938 C 143.65625 186.210938 146.355469 188.253906 147.1875 191.210938 L 163.988281 250.894531 C 164.671875 253.324219 162.84375 255.730469 160.316406 255.730469 " fill-opacity="1" fill-rule="nonzero"></path>
  <path fill="#282444" d="M 160.296875 255.730469 L 87.859375 255.730469 C 84.847656 255.730469 82.203125 253.730469 81.386719 250.832031 L 64.445312 190.648438 C 64.042969 189.230469 65.113281 187.816406 66.59375 187.816406 L 139.027344 187.816406 C 142.039062 187.816406 144.6875 189.820312 145.503906 192.71875 L 162.441406 252.902344 C 162.84375 254.320312 161.773438 255.730469 160.296875 255.730469 " fill-opacity="1" fill-rule="nonzero"></path>
  <path fill="#ed1c24" d="M 307.21875 241.101562 C 305.769531 244.492188 302.726562 246.8125 300.476562 247.960938 C 301.246094 244.328125 301.871094 239.875 302.113281 235.207031 C 302.738281 234.886719 303.585938 234.671875 304.761719 234.882812 C 305.863281 235.082031 306.667969 235.636719 307.148438 236.53125 C 307.929688 237.972656 307.734375 239.914062 307.21875 241.101562 Z M 308.984375 235.542969 C 308.199219 234.082031 306.863281 233.144531 305.132812 232.832031 C 303.96875 232.621094 303 232.714844 302.203125 232.945312 C 302.226562 231.921875 302.234375 230.898438 302.21875 229.871094 C 302.21875 229.714844 302.089844 229.589844 301.933594 229.589844 L 280.621094 229.59375 C 280.464844 229.59375 280.339844 229.71875 280.335938 229.875 C 280.175781 240.742188 282.457031 251.675781 284.390625 255.429688 C 284.484375 255.613281 284.675781 255.734375 284.886719 255.734375 L 297.679688 255.730469 C 297.886719 255.730469 298.078125 255.613281 298.175781 255.425781 C 298.738281 254.332031 299.332031 252.617188 299.890625 250.480469 C 302.574219 249.507812 307.101562 246.675781 309.136719 241.921875 C 309.863281 240.234375 310.097656 237.605469 308.984375 235.542969 " fill-opacity="1" fill-rule="nonzero"></path>
  <path fill="#ffffff" d="M 288.082031 214.058594 C 289.351562 210.152344 293.035156 209.304688 292.730469 205.898438 C 292.589844 204.3125 291.523438 202.917969 291.851562 202.695312 C 292.148438 202.492188 293.226562 203.515625 293.773438 204.136719 C 296 206.644531 297.628906 211.554688 296.015625 215.980469 C 294.632812 219.769531 292.410156 219.339844 291.453125 223.902344 C 290.984375 226.117188 291.609375 228.183594 291.371094 228.222656 C 291.140625 228.261719 285.527344 221.898438 288.082031 214.058594 " fill-opacity="1" fill-rule="nonzero"></path>
</svg>
